<?xml version="1.0" encoding="utf-8"?>
<!-- Generator: Adobe Illustrator 21.0.0, SVG Export Plug-In . SVG Version: 6.00 Build 0)  -->
<svg version="1.1" id="Calque_1" xmlns="http://www.w3.org/2000/svg" xmlns:xlink="http://www.w3.org/1999/xlink" x="0px" y="0px"
	 viewBox="0 0 50 65" style="enable-background:new 0 0 50 65;" xml:space="preserve">
<style type="text/css">
	.st0{fill:#F8BC5D;}
	.st1{fill:#CB8B37;}
	.st2{clip-path:url(#SVGID_4_);fill:#E4A448;}
	.st3{clip-path:url(#SVGID_8_);fill:#E4A448;}
	.st4{clip-path:url(#SVGID_12_);fill:#E4A448;}
	.st5{clip-path:url(#SVGID_14_);fill:#E4A448;}
	.st6{fill:#C38630;}
	.st7{fill:#60220A;}
	.st8{fill:#1E130B;}
	.st9{fill:#281A0F;}
	.st10{fill:#281909;}
	.st11{fill:#C58532;}
	.st12{clip-path:url(#SVGID_16_);fill:#E4A448;}
	.st13{enable-background:new    ;}
</style>
<g>
	<g>
		<g>
			<path class="st0" d="M24.7,34.8c-1.1-0.5-4.9-0.9-5.8,1.9c-0.9,2.5-0.1,6.3,2.8,6.9c0,0-3.8-0.5-4.2,0.7c-0.4,1.2,0,2.1,0,2.1
				s2.1,0.4,5.4,0s5.3-0.7,5.7-1.8C28.9,43.5,31.4,37.7,24.7,34.8z"/>
			<path class="st1" d="M17.9,46.5c0,0-0.5-1.5,0.5-1.7C18.3,44.8,17.8,45.7,17.9,46.5z"/>
			<path class="st1" d="M19.1,46.4c0,0-0.6-1,0.3-1.3C19.4,45.1,19.2,45.7,19.1,46.4z"/>
		</g>
		<g>
			<g>
				<path id="SVGID_1_" class="st0" d="M37.5,39.6c0,0,2.9,0.6,4.4-1.4c1.6-1.9,1.2-6-0.3-8.4c-1.6-2.4-4.8-6.1-3.9-9.9
					s3.1-5.9,4.8-5.3s1,3.6-0.3,5.8c-1.4,2.2,2.2,6.1,3.9,10c1.6,3.8,2.4,13.1-8.2,12.8C27.3,43.1,33.3,39.1,37.5,39.6z"/>
			</g>
			<g>
				<g>
					<defs>
						<path id="SVGID_2_" d="M37.5,39.6c0,0,2.9,0.6,4.4-1.4c1.6-1.9,1.2-6-0.3-8.4c-1.6-2.4-4.8-6.1-3.9-9.9s3.1-5.9,4.8-5.3
							s1,3.6-0.3,5.8c-1.4,2.2,2.2,6.1,3.9,10c1.6,3.8,2.4,13.1-8.2,12.8C27.3,43.1,33.3,39.1,37.5,39.6z"/>
					</defs>
					<clipPath id="SVGID_4_">
						<use xlink:href="#SVGID_2_"  style="overflow:visible;"/>
					</clipPath>
					<path class="st2" d="M42.5,14.7c0,0,1,2-0.3,4.1c-1,1.6-1.5,2.8-0.8,5.3s4,6.6,4.6,9.7c0.5,3.1-1,7.7-5.8,7.8
						c-2.6-8.2-10.4-0.4-8.6,1.1c1.8,1.5,7.6,1.5,9.2,1.1c1.6-0.3,5.6-1.5,6.2-5s0.6-8.5-1.3-10.7c-1.9-2.2-4.1-4.6-3.3-6.4
						C43.3,19.9,45.5,16,42.5,14.7z"/>
				</g>
			</g>
		</g>
		<g>
			<g>
				<g>
					<path id="SVGID_3_" class="st0" d="M15.8,24.4c0,0-2.7,6.2-3.5,6.4c0,0-1.2,0.1-2.3-1.9S7.6,25.6,5.5,27
						c-2,1.3-2.8,5.6-1.5,5.6c0,0,0.8,0.7,1.6-0.3c0,0,0.3,1.2,2.3-0.8c0,0,3.5,4.9,6.3,3.9s4-5.2,4-5.2S19.1,23.4,15.8,24.4z"/>
				</g>
				<g>
					<g>
						<defs>
							<path id="SVGID_6_" d="M15.8,24.4c0,0-2.7,6.2-3.5,6.4c0,0-1.2,0.1-2.3-1.9S7.6,25.6,5.5,27c-2,1.3-2.8,5.6-1.5,5.6
								c0,0,0.8,0.7,1.6-0.3c0,0,0.3,1.2,2.3-0.8c0,0,3.5,4.9,6.3,3.9s4-5.2,4-5.2S19.1,23.4,15.8,24.4z"/>
						</defs>
						<clipPath id="SVGID_8_">
							<use xlink:href="#SVGID_6_"  style="overflow:visible;"/>
						</clipPath>
						<path class="st3" d="M17.3,26.1c0,0-1.2,8.8-6.5,8.8s1.8,1.9,3.8,1s4-3.4,4.3-5.7C19.2,27.8,21.5,24.8,17.3,26.1z"/>
					</g>
				</g>
			</g>
			<path class="st1" d="M8,31.5c0,0,0.6-1.3,0.8-1.8C8.7,29.7,9.2,31.1,8,31.5z"/>
			<path class="st1" d="M5.6,32.3c0,0-0.8-1.2,0-2.1C5.6,30.1,4.3,31.2,5.6,32.3z"/>
			<path class="st1" d="M4,32.5c0,0-0.6-0.9,0-1.6C4,30.9,3,31.4,4,32.5z"/>
		</g>
		<g>
			<g>
				<path id="SVGID_5_" class="st0" d="M15.8,25.4c0,0,0.6,2.5,1.7,4.2c1.9,3.1,2.2,4.8,2.5,6.1s-0.1,7.5,5.3,9.2s11.6,0.5,12.8-0.3
					c1.2-0.8,1.3-2.1,1-4.3s-1-5.6-4.1-7.7s-7.2-5.3-7.9-7.9C26.3,22.2,14.9,20.5,15.8,25.4z"/>
			</g>
			<g>
				<g>
					<defs>
						<path id="SVGID_10_" d="M15.8,25.4c0,0,0.6,2.5,1.7,4.2c1.9,3.1,2.2,4.8,2.5,6.1s-0.1,7.5,5.3,9.2s11.6,0.5,12.8-0.3
							c1.2-0.8,1.3-2.1,1-4.3s-1-5.6-4.1-7.7s-7.2-5.3-7.9-7.9C26.3,22.2,14.9,20.5,15.8,25.4z"/>
					</defs>
					<clipPath id="SVGID_12_">
						<use xlink:href="#SVGID_10_"  style="overflow:visible;"/>
					</clipPath>
					<path class="st4" d="M18.3,35.8c0,0,2.3,3.2,4.1,4.3c2.3,1.3,5.4,1.2,7.2-2.3c2.9-5.5-2.6-11.6-3.2-12.7
						c-0.6-1,10.7,5.1,12.1,11s2.7,7.8-1.7,9.3S25.7,47,22.4,44.7s-3.6-2.6-3.9-3.6C18.4,40.2,18.6,36.5,18.3,35.8z"/>
				</g>
			</g>
			<g>
				<g>
					<defs>
						<path id="SVGID_13_" d="M15.8,25.4c0,0,0.6,2.5,1.7,4.2c1.9,3.1,2.2,4.8,2.5,6.1s-0.1,7.5,5.3,9.2s11.6,0.5,12.8-0.3
							c1.2-0.8,1.3-2.1,1-4.3s-1-5.6-4.1-7.7s-7.2-5.3-7.9-7.9C26.3,22.2,14.9,20.5,15.8,25.4z"/>
					</defs>
					<clipPath id="SVGID_14_">
						<use xlink:href="#SVGID_13_"  style="overflow:visible;"/>
					</clipPath>
					<path class="st5" d="M14.6,25.7c0,0,3.2,3.5,7.2,3s8.8-2.4,8.5-5.1C30.1,21.1,14.6,20.5,14.6,25.7z"/>
				</g>
			</g>
		</g>
		<path class="st1" d="M31.7,44.1c0,0,2.7,0.1,3.7,0C35.4,44.1,33,44.6,31.7,44.1z"/>
		<g>
			<g>
				<g>
					<path id="SVGID_7_" class="st0" d="M17.7,9.1c0,0,5.1-0.5,8.1,0.8c0,0,6-4.4,7.2-4.2c1.2,0.2-1.6,15.8-5.6,19.5
						s-9.8,2.1-12.4,1.4S8.7,22,9.4,18.2s4.1-14.4,5-14.8C14.5,3.5,16.6,5.9,17.7,9.1z"/>
				</g>
			</g>
			<path class="st6" d="M26.5,10.3c0,0,4.3-3.4,5.2-3.5c0,0-0.1,4.7-0.8,7C30.8,13.8,28.5,10.6,26.5,10.3z"/>
			<path class="st6" d="M16.5,9c0,0-1.2-3.7-1.9-4.2c0,0-1.6,3.2-1.9,5.1C12.7,9.9,15,8.9,16.5,9z"/>
			<g>
				<path class="st7" d="M16.2,23.6c0,0,0.9,2.8,1.6,2.9c0.8,0.1,1.5-2.6,1.5-2.6s-1.6-0.1-1.9-2.1C17.4,21.8,17.1,23.4,16.2,23.6z"
					/>
				<path class="st8" d="M17.7,21c0,0,0,2.6,1.9,2.6c1.3,0,2.3-2.3,2.2-3c0,0,0.6,3.4-2.2,3.4c-1.7,0-2.3-1.8-2.3-1.8
					S17.1,24,15.2,24c-1.7,0-1.5-2.7-1.5-2.7s0.4,2.4,1.6,2.3c2-0.3,2-2.6,2-2.6L17.7,21z"/>
				<path class="st9" d="M15.8,19.8c0,0,2.3-0.8,4.2,0c0,0-1.8,2.2-2.5,2.1S15.8,19.8,15.8,19.8z"/>
				<path class="st10" d="M20.5,20.9c0,0,3.8-2.3,9.5-1.2C29.9,19.7,24.6,19.2,20.5,20.9z"/>
				<path class="st10" d="M20.5,21.8c0,0,4.5-1.6,9.8,1.7C30.3,23.5,25.1,21.3,20.5,21.8z"/>
				<path class="st10" d="M20.5,22.5c0,0,3,0.3,4.9,2.7C25.4,25.2,23.1,23.2,20.5,22.5z"/>
				<path class="st10" d="M15.2,20.6c0,0-3.2-3.3-7.2-3C8,17.6,12.5,18.4,15.2,20.6z"/>
				<path class="st10" d="M14.6,21.1c0,0-4.8-2.4-7.4-0.2C7.2,20.9,10.4,19.7,14.6,21.1z"/>
				<path class="st10" d="M14.8,21.8c0,0-4-0.9-6.9,1.4C8,23.3,11.3,21.6,14.8,21.8z"/>
				<ellipse cx="15.2" cy="17.2" rx="0.7" ry="1.1"/>
				<ellipse cx="22.5" cy="17.2" rx="0.7" ry="1.1"/>
			</g>
		</g>
		<g>
			<g>
				<g>
					<path id="SVGID_9_" class="st0" d="M34.3,34.8c-1.1-0.5-4.4-0.6-5.4,2.1c-1.2,3.3-0.1,6.5,2.8,7.1c0,0-3.8-0.5-4.2,0.7
						s0,2.1,0,2.1s2.1,0.4,5.4,0s5.3-0.7,5.7-1.8S41,37.8,34.3,34.8z"/>
				</g>
			</g>
			<path class="st1" d="M28,47c0,0-0.7-1,0.4-1.7C28.4,45.3,28,46.3,28,47z"/>
			<path class="st1" d="M29.5,47c0,0-0.4-1.4,0.5-1.7C30,45.3,29.6,46,29.5,47z"/>
			<path class="st11" d="M28.9,36.7c0,0-2.7,8.2,6.5,7.4c0,0-1.8,0.4-3.4,0.2c-1.6-0.2-2.8-0.3-3.7-0.2c0,0,1.2-0.5,3.3-0.1
				C31.6,44.1,26.7,43.2,28.9,36.7z"/>
		</g>
		<g>
			<g>
				<g>
					<path id="SVGID_11_" class="st0" d="M22.6,30.6c0,0,1.9,10.7,1,13.4c0,0-3-0.1-2.5,2.8c0,0,1.2,1.5,6.1,0c0,0,0.7-1,0.8-5.8
						s0.4-6.6,0.4-6.8s0.9-5.8-2.8-6.1S22.5,30,22.6,30.6z"/>
				</g>
				<g>
					<g>
						<defs>
							<path id="SVGID_15_" d="M22.6,30.6c0,0,1.9,10.7,1,13.4c0,0-3-0.1-2.5,2.8c0,0,1.2,1.5,6.1,0c0,0,0.7-1,0.8-5.8
								s0.4-6.6,0.4-6.8s0.9-5.8-2.8-6.1S22.5,30,22.6,30.6z"/>
						</defs>
						<clipPath id="SVGID_16_">
							<use xlink:href="#SVGID_15_"  style="overflow:visible;"/>
						</clipPath>
						<path class="st12" d="M23.8,47.4c0,0,2-0.9,2.3-1.7s0.6-8.4,0.3-10.9c-0.2-2.5,0.9-5.7,2-6.2s0.2,10.6,0.3,11.7
							c0.1,1.1,0.1,6.3-1.9,6.8S23.8,47.4,23.8,47.4z"/>
					</g>
				</g>
			</g>
			<path class="st1" d="M22.5,45.4c0,0-1.4,0.5-0.7,1.8C21.8,47.2,21.7,46.2,22.5,45.4z"/>
			<path class="st1" d="M23.1,47.4c0,0-0.5-1.4,0.7-1.6C23.8,45.8,23.4,46.5,23.1,47.4z"/>
			<path class="st11" d="M23.1,33.5c0,0,1.4,6.2,0.5,10.5c0,0-2.5,0.2-2.5,2.8c0,0-0.8-2.6,2.2-3.1C23.3,43.7,23.8,38.3,23.1,33.5z"
				/>
		</g>
	</g>
</g>
<g class="st13">
	<path class="st0" d="M3.9,56.3l-0.5-1.7L3,56.3H2.4l-0.8-2.4h0.7l0.5,1.8l0.5-1.8h0.6l0.5,1.8l0.5-1.8h0.6l-0.8,2.4H3.9z"/>
	<path class="st0" d="M6.2,54.3v0.5h1.2v0.5H6.2v0.5h1.3v0.5h-2v-2.4h1.9v0.5H6.2z"/>
	<path class="st0" d="M9.6,55.7v0.5H8v-2.4h0.6v1.9H9.6z"/>
	<path class="st0" d="M12.1,54.2l-0.4,0.4c-0.2-0.2-0.4-0.3-0.6-0.3c-0.4,0-0.7,0.3-0.7,0.7c0,0.4,0.3,0.7,0.7,0.7
		c0.2,0,0.4-0.1,0.6-0.3l0.4,0.4c-0.3,0.3-0.6,0.4-1,0.4c-0.7,0-1.3-0.5-1.3-1.3c0-0.7,0.6-1.2,1.3-1.2
		C11.4,53.8,11.8,53.9,12.1,54.2z"/>
	<path class="st0" d="M14.8,55c0,0.7-0.6,1.3-1.3,1.3c-0.8,0-1.3-0.5-1.3-1.3c0-0.7,0.6-1.2,1.3-1.2C14.2,53.8,14.8,54.3,14.8,55z
		 M12.8,55c0,0.4,0.3,0.7,0.7,0.7c0.4,0,0.7-0.3,0.7-0.7c0-0.4-0.3-0.7-0.7-0.7S12.8,54.6,12.8,55z"/>
	<path class="st0" d="M17.3,56.3l0-1.6L16.7,56h-0.4l-0.6-1.3v1.6h-0.6v-2.4h0.7l0.7,1.5l0.7-1.5h0.7v2.4H17.3z"/>
	<path class="st0" d="M18.9,54.3v0.5h1.2v0.5h-1.2v0.5h1.3v0.5h-2v-2.4h1.9v0.5H18.9z"/>
	<path class="st0" d="M22.6,54.3v1.9H22v-1.9h-0.7v-0.5h2.1v0.5H22.6z"/>
	<path class="st0" d="M26,55c0,0.7-0.6,1.3-1.3,1.3c-0.8,0-1.3-0.5-1.3-1.3c0-0.7,0.6-1.2,1.3-1.2C25.4,53.8,26,54.3,26,55z M24,55
		c0,0.4,0.3,0.7,0.7,0.7c0.4,0,0.7-0.3,0.7-0.7c0-0.4-0.3-0.7-0.7-0.7S24,54.6,24,55z"/>
	<path class="st0" d="M29.3,54.2l-0.4,0.4c-0.2-0.2-0.4-0.3-0.6-0.3c-0.4,0-0.7,0.3-0.7,0.7c0,0.4,0.3,0.7,0.7,0.7
		c0.2,0,0.4-0.1,0.6-0.3l0.4,0.4c-0.3,0.3-0.7,0.4-1,0.4c-0.7,0-1.3-0.5-1.3-1.3c0-0.7,0.6-1.2,1.3-1.2C28.6,53.8,29,53.9,29.3,54.2
		z"/>
	<path class="st0" d="M31.2,56.3v-1h-1v1h-0.6v-2.4h0.6v1h1v-1h0.6v2.4H31.2z"/>
	<path class="st0" d="M32.9,55.8l-0.2,0.5H32l1.1-2.4h0.6l1,2.4h-0.7l-0.2-0.5H32.9z M33.4,54.4L33,55.3h0.7L33.4,54.4z"/>
	<path class="st0" d="M35.9,54.3v1.9h-0.6v-1.9h-0.7v-0.5h2.1v0.5H35.9z"/>
	<path class="st0" d="M38,55.6L38,55.6h-0.5v0.7h-0.6v-2.4H38c0.6,0,1,0.3,1,0.9c0,0.4-0.2,0.6-0.4,0.8l0.5,0.8h-0.7L38,55.6z
		 M38,55.1c0.3,0,0.4-0.1,0.4-0.4c0-0.3-0.2-0.4-0.4-0.4h-0.5v0.8H38z"/>
	<path class="st0" d="M41.9,55c0,0.7-0.6,1.3-1.3,1.3c-0.8,0-1.3-0.5-1.3-1.3c0-0.7,0.6-1.2,1.3-1.2C41.3,53.8,41.9,54.3,41.9,55z
		 M39.9,55c0,0.4,0.3,0.7,0.7,0.7c0.4,0,0.7-0.3,0.7-0.7c0-0.4-0.3-0.7-0.7-0.7C40.2,54.3,39.9,54.6,39.9,55z"/>
	<path class="st0" d="M44.7,55c0,0.7-0.6,1.3-1.3,1.3c-0.8,0-1.3-0.5-1.3-1.3c0-0.7,0.6-1.2,1.3-1.2C44.1,53.8,44.7,54.3,44.7,55z
		 M42.7,55c0,0.4,0.3,0.7,0.7,0.7c0.4,0,0.7-0.3,0.7-0.7c0-0.4-0.3-0.7-0.7-0.7C43,54.3,42.7,54.6,42.7,55z"/>
	<path class="st0" d="M47.1,56.3l0-1.6L46.5,56h-0.4l-0.6-1.3v1.6H45v-2.4h0.7l0.7,1.5l0.7-1.5h0.7v2.4H47.1z"/>
</g>
</svg>
